<?xml version="1.0" standalone="no"?>
<!DOCTYPE svg PUBLIC "-//W3C//DTD SVG 20010904//EN"
 "http://www.w3.org/TR/2001/REC-SVG-20010904/DTD/svg10.dtd">
<svg version="1.0" xmlns="http://www.w3.org/2000/svg"
 width="128.000000pt" height="128.000000pt" viewBox="0 0 128.000000 128.000000"
 preserveAspectRatio="xMidYMid meet">
<metadata>
Created by potrace 1.11, written by Peter Selinger 2001-2013
</metadata>
<g transform="translate(0.000000,128.000000) scale(0.100000,-0.100000)"
fill="#000000" stroke="none">
<path d="M605 1229 c-71 -20 -84 -134 -20 -169 21 -11 23 -19 22 -79 l-2 -66
-185 -1 c-239 -2 -226 0 -250 -26 -15 -17 -20 -35 -20 -80 0 -57 -1 -58 -27
-58 -32 -1 -55 -16 -70 -45 -15 -28 -12 -460 3 -475 6 -6 29 -17 50 -25 38
-13 39 -14 42 -67 2 -42 8 -58 28 -75 l25 -23 439 0 439 0 26 23 c22 18 27 31
28 77 2 50 4 55 26 58 37 6 70 32 78 61 5 22 7 215 4 396 -1 56 -34 95 -79 95
-28 0 -29 2 -29 51 -1 59 -17 96 -47 106 -12 4 -109 7 -216 8 l-195 0 -2 66
c-2 61 -1 67 22 79 27 14 36 30 41 77 3 25 -2 39 -23 62 -32 33 -65 42 -108
30z"/>
</g>
</svg>
